PathFileType	4	(X/Y/Z)	C:\Users\Basilio\Documents\Thesis Gigler\squatting_fais\c3dfiles\038\SLS_back_pre5\markers_experimental.trc
DataRate	CameraRate	NumFrames	NumMarkers	Units	OrigDataRate	OrigDataStartFrame	OrigNumFrames
200.000000	200.000000	4	63	mm	200.000000	1255	1674
Frame#	Time	FHD			LBHD			RBHD			C7			T10			CLAV			LSHO			LUUPA			LMUPA			LDUPA			LLEP			LMEP			LRAD			LUL			LRFIN			RSHO			RUPA1			RMUPA			RDUPA			RLEP			RMEP			RRAD			RUL			RUFIN			LASI			RASI			USACR			LSACR			RSACR			LTHI1			LTHI2			LTHI3			LTHI4			LLFC			LMFC			LTIB1			LTIB2			LTIB3			LTIB4			LLMAL			LMMAL			LHEE			LMT1			LMT2			LMT5			RTHI			RTHI2			RTHI3			RTHI4			RLFC			RMFC			RTIB1			RTIB2			RTIB3			RTIB4			RLMAL			RMMAL			RHEE			RMT1			RMT2			RMT5			*61			*62			
		X1	Y1	Z1	X2	Y2	Z2	X3	Y3	Z3	X4	Y4	Z4	X5	Y5	Z5	X6	Y6	Z6	X7	Y7	Z7	X8	Y8	Z8	X9	Y9	Z9	X10	Y10	Z10	X11	Y11	Z11	X12	Y12	Z12	X13	Y13	Z13	X14	Y14	Z14	X15	Y15	Z15	X16	Y16	Z16	X17	Y17	Z17	X18	Y18	Z18	X19	Y19	Z19	X20	Y20	Z20	X21	Y21	Z21	X22	Y22	Z22	X23	Y23	Z23	X24	Y24	Z24	X25	Y25	Z25	X26	Y26	Z26	X27	Y27	Z27	X28	Y28	Z28	X29	Y29	Z29	X30	Y30	Z30	X31	Y31	Z31	X32	Y32	Z32	X33	Y33	Z33	X34	Y34	Z34	X35	Y35	Z35	X36	Y36	Z36	X37	Y37	Z37	X38	Y38	Z38	X39	Y39	Z39	X40	Y40	Z40	X41	Y41	Z41	X42	Y42	Z42	X43	Y43	Z43	X44	Y44	Z44	X45	Y45	Z45	X46	Y46	Z46	X47	Y47	Z47	X48	Y48	Z48	X49	Y49	Z49	X50	Y50	Z50	X51	Y51	Z51	X52	Y52	Z52	X53	Y53	Z53	X54	Y54	Z54	X55	Y55	Z55	X56	Y56	Z56	X57	Y57	Z57	X58	Y58	Z58	X59	Y59	Z59	X60	Y60	Z60	X61	Y61	Z61	X62	Y62	Z62	X63	Y63	Z63	

1256	6.275	-196.0521697998047	1724.567016601563	-1077.912231445313	-347.9226379394532	1666.8447265625	-1138.970336914063	-339.2788696289063	1652.623901367188	-994.6687011718752	-383.5224609375001	1486.830932617188	-1066.312133789063	-385.8628540039064	1210.30029296875	-1041.141723632813	-238.1233673095704	1472.028686523438	-1077.947143554688	-303.1733398437501	1510.152709960938	-1217.1787109375	-138.8164825439453	1451.776977539063	-1347.694091796875	-111.5143508911133	1485.575439453125	-1320.084106445313	-69.76345825195314	1460.049560546875	-1354.408813476563	-6.996027469635012	1463.58935546875	-1354.568481445313	3.904988527297975	1389.229370117188	-1331.047973632813	269.1810302734376	1470.156127929688	-1227.873901367188	285.0708312988282	1481.252807617188	-1297.449096679688	339.7261657714844	1504.730834960938	-1203.43408203125	-283.5246276855469	1504.176513671875	-935.8641357421877	-121.5341033935547	1489.268676757813	-824.077087402344	-88.48616790771486	1498.417724609375	-858.1893310546877	-53.18465805053712	1487.539672851563	-809.8922119140627	20.12951278686524	1487.860229492188	-802.8474121093752	29.21892547607423	1410.232788085938	-819.4915161132815	296.4811706542969	1496.531494140625	-883.1116943359377	306.2276306152344	1512.750854492188	-815.029235839844	372.0475769042969	1538.132202148438	-889.3621826171877	-229.8098449707032	1006.884704589844	-1125.318725585938	-246.9380187988282	1040.46240234375	-880.702575683594	-404.637176513672	1074.680908203125	-1017.595642089844	-417.110076904297	1043.055297851563	-1043.307373046875	-418.9956359863282	1048.513061523438	-986.570739746094	-216.5348358154297	694.8516845703126	-1171.772705078125	-170.7947540283203	622.7023315429689	-1164.241088867188	-126.6268310546875	637.5524291992189	-1143.711303710938	-188.8161926269532	569.6835937500001	-1144.360595703125	-179.7527313232422	512.1423339843751	-1133.5419921875	-167.0481872558594	514.1530761718751	-1018.2646484375	-192.4147949218751	331.9990539550782	-1041.368286132813	-248.7045593261719	299.1038818359376	-1101.300659179688	-215.6894683837891	286.8552246093751	-1071.672241210938	-253.0070800781251	220.5408477783204	-1033.207763671875	-374.8482360839844	119.2040710449219	-1041.156982421875	-334.5239257812501	135.3163299560547	-968.6130981445315	-432.3065490722657	102.6628646850586	-980.7326660156252	-233.1894073486329	46.52963256835938	-975.7791137695315	-225.3113098144532	43.67949295043946	-1025.7939453125	-271.0797729492188	34.02252197265626	-1072.56689453125	-271.0343322753907	776.932800292969	-783.9793090820315	-227.8701629638672	727.2345581054689	-766.7655029296876	-195.1893615722657	731.9123535156251	-769.362243652344	-246.2074127197266	642.6338500976564	-769.015319824219	-230.4704132080079	545.6282958984376	-774.134948730469	-217.1186828613282	527.3393554687501	-889.1093750000002	-357.4243469238282	441.7491760253907	-820.511413574219	-460.3528747558595	496.3612670898439	-813.3850097656252	-442.8794250488282	451.7272033691407	-814.5672607421877	-480.7929687500001	425.4461975097657	-852.8052978515627	-612.7844848632814	457.7585449218751	-856.779724121094	-583.5360717773439	423.1925659179689	-927.5552368164065	-630.3043823242189	508.2235717773439	-934.5264282226565	-660.2701416015626	293.6466369628907	-918.581481933594	-673.1502685546876	297.7057495117188	-873.4859619140627	-705.9572143554689	343.9767761230469	-844.131042480469	nan	nan	nan	nan	nan	nan	
1257	6.28	-196.3776550292969	1725.02001953125	-1077.550170898438	-348.3199157714844	1667.651245117188	-1138.915649414063	-339.6389770507813	1653.316162109375	-994.516052246094	-383.8148498535157	1487.630004882813	-1066.327880859375	-385.5704956054689	1211.183837890625	-1041.063842773438	-238.5012969970704	1472.979858398438	-1077.850708007813	-303.2161560058594	1510.921997070313	-1217.102172851563	-138.9292449951172	1452.70654296875	-1347.68798828125	-111.8602905273438	1486.228271484375	-1319.946044921875	-69.91732788085939	1460.953125	-1354.49609375	-7.553803920745851	1464.699340820313	-1354.619995117188	3.749291419982911	1389.439819335938	-1331.054077148438	268.9577941894532	1470.69091796875	-1227.897705078125	284.9259338378907	1481.919799804688	-1297.475830078125	339.4709167480469	1505.648071289063	-1203.439453125	-283.8416137695313	1504.858642578125	-935.7298583984377	-121.9449234008789	1490.58837890625	-823.8914184570315	-88.73744964599611	1499.520385742188	-857.9082031250002	-53.31806564331056	1488.00537109375	-809.6636962890627	19.68309974670411	1488.599853515625	-802.6230468750002	29.06799697875977	1410.845825195313	-819.4277343750002	296.0612792968751	1496.57177734375	-882.7452392578127	305.7994079589844	1513.369995117188	-814.4968261718752	371.7614135742188	1539.10009765625	-888.906921386719	-229.4606018066407	1007.752746582031	-1125.232788085938	-246.8389282226563	1041.38427734375	-880.6157226562502	-404.4563293457032	1075.46142578125	-1017.567260742188	-416.8200988769532	1043.759399414063	-1043.291870117188	-418.852752685547	1049.264404296875	-986.5717773437502	-216.8966674804688	695.3833618164064	-1171.483764648438	-171.4707794189453	623.1437988281251	-1163.98876953125	-127.0374832153321	637.7164916992189	-1143.527221679688	-189.3988647460938	570.1149291992189	-1144.079467773438	-180.1248931884766	512.8074951171876	-1133.176513671875	-167.804672241211	514.4055175781251	-1017.851135253906	-192.8650207519532	332.3311462402344	-1041.168334960938	-249.1648101806641	299.3762207031251	-1101.116455078125	-216.0675811767579	287.3081359863282	-1071.376953125	-253.4776611328126	219.9537811279297	-1033.526245117188	-374.7660827636719	119.1991424560547	-1041.018676757813	-334.6040954589844	135.2275848388672	-968.5451660156252	-432.1910095214845	102.3889846801758	-981.3414306640627	-233.1719512939454	46.52498245239259	-975.7530517578127	-225.3398132324219	43.78170013427735	-1025.817626953125	-271.1776733398438	34.00469970703126	-1072.474365234375	-270.5924377441407	777.7947998046877	-783.861999511719	-227.7056121826172	728.4353637695314	-766.6243286132814	-194.7581939697266	732.7990112304689	-769.2464599609377	-245.8000793457032	643.5574340820314	-768.8703613281252	-230.268295288086	545.9832153320314	-774.214294433594	-216.5783691406251	528.1796264648439	-888.9204711914065	-356.8932495117188	442.3150024414064	-820.0784912109377	-459.8822326660157	497.0511779785157	-813.1380004882815	-442.4309692382814	452.5403137207032	-814.176208496094	-480.6975097656251	425.7885742187501	-852.1983032226565	-612.1625366210939	458.4066772460939	-856.4329223632815	-583.0316162109376	423.5555419921876	-927.232849121094	-629.9146728515626	508.7778625488282	-934.186218261719	-659.6354980468751	293.9584350585938	-918.184997558594	-672.6608276367189	298.1416015625001	-873.0325317382815	-705.3408813476564	344.3316955566407	-843.5494384765627	nan	nan	nan	nan	nan	nan	
1258	6.285	-196.5807189941407	1726.1572265625	-1077.8359375	-348.5431518554688	1668.524291992188	-1138.82958984375	-339.9634704589844	1654.20263671875	-994.5167236328127	-384.089569091797	1488.37109375	-1066.310913085938	-385.4070434570314	1211.8564453125	-1041.013549804688	-238.7876586914063	1473.794067382813	-1077.686401367188	-303.5255126953126	1511.695922851563	-1217.058349609375	-138.9281921386719	1453.525512695313	-1347.546508789063	-112.0405654907227	1487.228393554688	-1319.986938476563	-70.07712554931642	1461.726684570313	-1354.439208984375	-7.76059675216675	1465.372680664063	-1354.53662109375	3.525248289108277	1390.865112304688	-1330.981201171875	268.7665710449219	1471.262451171875	-1227.806884765625	284.7077331542969	1482.603759765625	-1297.439697265625	339.5406494140626	1505.986694335938	-1203.356079101563	-284.0757751464844	1505.6376953125	-935.5569458007815	-122.308219909668	1491.07958984375	-823.5885009765627	-89.04121398925783	1500.091796875	-857.673034667969	-53.66596984863283	1488.921142578125	-809.4363403320315	19.2718563079834	1489.4541015625	-802.2891845703127	28.70310020446778	1411.855712890625	-819.168151855469	295.8620605468751	1498.063354492188	-882.406921386719	305.3161926269532	1514.176147460938	-814.130798339844	371.6108703613282	1539.255615234375	-888.6748046875002	-229.2924804687501	1008.1015625	-1125.282348632813	-246.6769561767579	1042.483642578125	-880.5930175781252	-404.2277221679689	1075.724975585938	-1017.586486816406	-416.724822998047	1044.528442382813	-1043.258911132813	-418.5462036132814	1050.007446289063	-986.5501098632815	-217.4622650146485	696.0025634765626	-1171.231323242188	-171.9248352050782	623.6316528320314	-1163.829223632813	-127.6593093872071	638.1676025390626	-1143.16845703125	-190.0600891113282	570.6450195312501	-1143.857177734375	-180.9870300292969	513.2840576171876	-1132.89306640625	-168.92041015625	514.9276733398439	-1017.339294433594	-193.2944335937501	332.7085876464844	-1040.950805664063	-249.6091918945313	299.5822753906251	-1100.918701171875	-216.3504943847657	287.5774841308594	-1071.27685546875	-253.6225891113282	220.8604736328126	-1032.883666992188	-374.8065490722657	119.2433090209961	-1040.8740234375	-334.6350708007813	135.3975219726563	-968.4609375000002	-432.3072204589845	102.6236190795899	-980.7205810546877	-233.153305053711	46.57994461059571	-975.7333984375002	-225.3559722900391	43.79969787597657	-1025.794555664063	-271.1578674316407	34.0117530822754	-1072.486328125	-270.3741149902344	778.433044433594	-783.8646240234377	-227.232162475586	729.3191528320314	-766.4797363281251	-194.0900878906251	733.7981567382814	-769.1733398437502	-245.5806579589844	644.4158935546876	-768.7440185546877	-229.8470764160157	546.9963989257814	-774.0774536132815	-216.2312774658204	528.9667968750001	-888.7607421875002	-356.3338317871094	442.9419250488282	-819.870544433594	-459.6415100097657	497.645721435547	-813.1129150390627	-442.2751770019532	453.0553283691407	-813.4655761718752	-480.2285461425782	426.4949035644532	-851.8953247070315	-611.5679321289064	458.8971252441407	-856.1870727539065	-582.6336059570314	424.0826416015626	-926.9343872070315	-630.0161132812501	509.0362548828126	-934.1877441406252	-658.9873657226564	294.3631896972657	-917.862243652344	-671.9582519531251	298.5920104980469	-872.556091308594	-704.5805664062501	345.0783386230469	-843.0017700195315	nan	nan	nan	nan	nan	nan	
1259	6.29	-196.8916473388672	1727.096313476563	-1077.699584960938	-348.8439331054688	1669.310546875	-1138.744140625	-340.3999633789063	1655.0009765625	-994.2900390625002	-384.3121643066407	1488.958129882813	-1066.107299804688	-385.4760742187501	1212.492431640625	-1041.056396484375	-238.8249969482422	1474.709228515625	-1077.677734375	-303.8393554687501	1512.490844726563	-1216.94677734375	-139.2522735595703	1454.199340820313	-1347.54150390625	-112.1004333496094	1488.018432617188	-1319.957885742188	-69.79266357421876	1462.102172851563	-1354.370483398438	-7.933588027954103	1466.1748046875	-1354.488403320313	3.391521692276002	1391.475463867188	-1331.022827148438	268.3910827636719	1472.296875	-1227.922241210938	284.6412658691407	1483.421630859375	-1297.407592773438	339.4510498046876	1506.572631835938	-1203.375732421875	-284.3043823242188	1506.541015625	-935.547790527344	-122.8322906494141	1492.180053710938	-823.4602050781252	-89.36547088623048	1501.263061523438	-857.5843505859377	-54.05079269409181	1489.622680664063	-809.314147949219	18.7586784362793	1490.192138671875	-801.9859008789065	28.28513526916505	1412.59521484375	-818.8905029296877	295.5094299316407	1498.5673828125	-882.0557250976565	305.0484619140626	1515.128784179688	-813.9277343750002	371.3527221679688	1540.521240234375	-888.291442871094	-229.1038513183594	1008.771789550781	-1125.080322265625	-246.4139709472657	1043.12744140625	-880.401794433594	-404.1202087402345	1076.638793945313	-1017.4755859375	-416.4555053710939	1045.250854492188	-1043.2734375	-418.3322753906251	1050.741333007813	-986.554138183594	-217.7953643798829	696.5957641601564	-1171.073120117188	-172.6401672363282	624.0321655273439	-1163.50390625	-128.2239379882813	638.4696044921876	-1142.901123046875	-190.8140716552735	571.2852783203126	-1143.523681640625	-181.7660369873047	513.7402954101564	-1132.664428710938	-169.5574035644532	515.5592041015626	-1017.140991210938	-193.7256164550782	333.1866760253907	-1040.9296875	-250.1163787841797	299.3606262207032	-1100.877075195313	-216.8532409667969	287.4956054687501	-1071.279174804688	-254.0382843017579	220.7505950927735	-1033.04296875	-374.7624511718751	119.2641067504883	-1040.766235351563	-334.7009887695313	135.4019927978516	-968.4192504882815	-432.1853332519532	102.3943405151367	-981.340759277344	-233.1649627685547	46.45785522460938	-975.7529296875002	-225.3718566894532	43.73543167114259	-1025.804077148438	-271.0993652343751	34.02746963500977	-1072.507446289063	-269.9897460937501	779.4104003906252	-783.8140869140627	-226.8856353759766	730.1549682617189	-766.3698120117189	-193.7939147949219	734.5963745117189	-769.1429443359377	-245.1787719726563	645.3698730468751	-768.6496582031252	-228.9588470458985	548.0803222656251	-773.936218261719	-215.7957763671876	529.7960205078126	-888.690856933594	-355.8879089355469	443.8156127929689	-819.561462402344	-459.1607055664064	498.2014160156251	-812.8108520507815	-441.4651489257814	453.769500732422	-813.8861083984377	-479.6691284179689	427.3057861328126	-851.5921630859377	-611.0224609375001	459.4335327148439	-855.8430175781252	-582.1411743164064	424.5548095703126	-926.6494750976565	-629.3307495117189	509.5877990722657	-933.6903076171877	-658.3631591796876	294.8066711425782	-917.3543701171877	-671.0038452148439	299.1927490234376	-872.045837402344	-704.1403198242189	345.3879699707032	-842.6007080078127	nan	nan	nan	nan	nan	nan	
